<svg width="30" height="29" viewBox="0 0 30 29" fill="none" xmlns="http://www.w3.org/2000/svg">
<path d="M2.5 26.5833C2.5 21.2445 6.97715 16.9166 12.5 16.9166C18.0229 16.9166 22.5 21.2445 22.5 26.5833H20C20 22.5793 16.6421 19.3333 12.5 19.3333C8.35786 19.3333 5 22.5793 5 26.5833H2.5ZM12.5 15.7083C8.35625 15.7083 5 12.4639 5 8.45831C5 4.45269 8.35625 1.20831 12.5 1.20831C16.6438 1.20831 20 4.45269 20 8.45831C20 12.4639 16.6438 15.7083 12.5 15.7083ZM12.5 13.2916C15.2625 13.2916 17.5 11.1287 17.5 8.45831C17.5 5.7879 15.2625 3.62498 12.5 3.62498C9.7375 3.62498 7.5 5.7879 7.5 8.45831C7.5 11.1287 9.7375 13.2916 12.5 13.2916ZM22.8546 17.7659C26.3305 19.2803 28.75 22.6586 28.75 26.5833H26.25C26.25 23.6398 24.4354 21.1061 21.8285 19.9702L22.8546 17.7659ZM21.9953 4.12427C24.493 5.11972 26.25 7.49601 26.25 10.2708C26.25 13.739 23.5052 16.5846 20 16.8896V14.4572C22.1209 14.1643 23.75 12.4023 23.75 10.2708C23.75 8.60253 22.752 7.1606 21.3013 6.47224L21.9953 4.12427Z" fill="#614834"/>
</svg>
