<svg width="28" height="18" viewBox="0 0 28 18" fill="none" xmlns="http://www.w3.org/2000/svg">
<path opacity="0.8" d="M14 0C20.9778 0 26.7829 3.87976 28 9C26.7829 14.1202 20.9778 18 14 18C7.02221 18 1.21708 14.1202 0 9C1.21708 3.87976 7.02221 0 14 0ZM14 16C19.4812 16 24.1714 13.052 25.3586 9C24.1714 4.94803 19.4812 2 14 2C8.51877 2 3.82859 4.94803 2.64137 9C3.82859 13.052 8.51877 16 14 16ZM14 13.5C10.7839 13.5 8.1767 11.4853 8.1767 9C8.1767 6.51472 10.7839 4.5 14 4.5C17.216 4.5 19.8233 6.51472 19.8233 9C19.8233 11.4853 17.216 13.5 14 13.5ZM14 11.5C15.7868 11.5 17.2352 10.3807 17.2352 9C17.2352 7.6193 15.7868 6.5 14 6.5C12.2133 6.5 10.7648 7.6193 10.7648 9C10.7648 10.3807 12.2133 11.5 14 11.5Z" fill="black"/>
</svg>
