<svg width="19" height="19" viewBox="0 0 19 19" fill="none" xmlns="http://www.w3.org/2000/svg">
<path d="M7.12516 0.791672V2.37501H11.8752V0.791672H13.4585V2.37501H16.6252C17.0624 2.37501 17.4168 2.72945 17.4168 3.16667V15.8333C17.4168 16.2706 17.0624 16.625 16.6252 16.625H2.37516C1.93794 16.625 1.5835 16.2706 1.5835 15.8333V3.16667C1.5835 2.72945 1.93794 2.37501 2.37516 2.37501H5.54183V0.791672H7.12516ZM15.8335 8.70834H3.16683V15.0417H15.8335V8.70834ZM8.7085 10.2917V13.4583H4.75016V10.2917H8.7085ZM5.54183 3.95834H3.16683V7.125H15.8335V3.95834H13.4585V5.54167H11.8752V3.95834H7.12516V5.54167H5.54183V3.95834Z" fill="#4A3321"/>
</svg>
